<?xml version="1.0" standalone="no"?>
<!DOCTYPE svg PUBLIC "-//W3C//DTD SVG 20010904//EN"
 "http://www.w3.org/TR/2001/REC-SVG-20010904/DTD/svg10.dtd">
<svg version="1.0" xmlns="http://www.w3.org/2000/svg"
 width="741.000000pt" height="247.000000pt" viewBox="0 0 741.000000 247.000000"
 preserveAspectRatio="xMidYMid meet">

<g transform="translate(0.000000,247.000000) scale(0.100000,-0.100000)"
fill="white" stroke="none">
<path d="M948 2288 c-16 -38 -22 -65 -16 -67 6 -2 15 4 20 13 5 9 22 16 38 16
16 0 33 -7 38 -16 5 -9 14 -15 20 -13 16 6 -39 129 -58 129 -11 0 -25 -22 -42
-62z m55 2 c4 -15 0 -20 -14 -20 -21 0 -22 1 -13 24 8 22 21 20 27 -4z"/>
<path d="M1156 2331 c-26 -28 -23 -71 4 -93 26 -21 81 -21 88 1 3 10 -3 12
-26 7 -21 -5 -34 -2 -46 9 -36 37 -4 82 50 69 20 -5 26 -3 22 7 -8 23 -71 23
-92 0z"/>
<path d="M1308 2343 c-9 -2 -22 -18 -28 -34 -11 -26 -10 -34 7 -57 39 -53 123
-30 123 33 0 47 -45 73 -102 58z m60 -25 c30 -30 2 -86 -37 -73 -30 9 -39 54
-16 72 23 16 37 17 53 1z"/>
<path d="M1440 2285 l0 -65 50 0 c28 0 50 5 50 10 0 6 -16 10 -35 10 l-35 0 0
55 c0 42 -3 55 -15 55 -12 0 -15 -14 -15 -65z"/>
<path d="M1560 2285 l0 -65 45 0 c25 0 45 5 45 10 0 6 -13 10 -30 10 -30 0
-30 1 -30 55 0 42 -3 55 -15 55 -12 0 -15 -14 -15 -65z"/>
<path d="M1677 2343 c-4 -3 -7 -33 -7 -65 l0 -58 49 0 c28 0 53 5 56 10 4 6
-10 10 -34 10 -34 0 -41 3 -41 20 0 16 7 20 30 20 17 0 30 5 30 10 0 6 -13 10
-30 10 -20 0 -30 5 -30 15 0 10 11 15 35 15 19 0 35 5 35 10 0 11 -83 14 -93
3z"/>
<path d="M1820 2330 c-54 -54 10 -132 84 -104 29 11 17 26 -14 19 -37 -8 -60
8 -60 41 0 29 31 47 65 38 27 -7 35 10 9 20 -30 12 -64 6 -84 -14z"/>
<path d="M1930 2340 c0 -5 9 -10 20 -10 18 0 20 -7 20 -55 0 -42 3 -55 15 -55
12 0 15 13 15 55 0 48 2 55 20 55 11 0 20 5 20 10 0 6 -25 10 -55 10 -30 0
-55 -4 -55 -10z"/>
<path d="M2060 2285 c0 -51 3 -65 15 -65 12 0 15 14 15 65 0 51 -3 65 -15 65
-12 0 -15 -14 -15 -65z"/>
<path d="M2120 2341 c0 -23 51 -121 64 -121 11 0 24 24 63 118 3 6 -2 12 -10
12 -9 0 -23 -19 -32 -45 -10 -24 -21 -43 -25 -40 -3 2 -12 22 -20 44 -7 23
-19 41 -27 41 -7 0 -13 -4 -13 -9z"/>
<path d="M2270 2285 l0 -65 50 0 c28 0 50 5 50 10 0 6 -16 10 -35 10 -28 0
-35 4 -35 20 0 16 7 20 30 20 17 0 30 5 30 10 0 6 -13 10 -30 10 -20 0 -30 5
-30 15 0 10 11 15 35 15 19 0 35 5 35 10 0 6 -22 10 -50 10 l-50 0 0 -65z"/>
<path d="M2468 2287 c-16 -38 -22 -63 -16 -66 6 -2 15 4 20 13 11 20 67 21 74
1 4 -8 13 -15 21 -15 8 0 13 4 11 8 -1 4 -14 33 -27 65 -15 35 -31 57 -40 57
-10 0 -26 -24 -43 -63z m55 3 c4 -15 0 -20 -14 -20 -21 0 -22 1 -13 24 8 22
21 20 27 -4z"/>
<path d="M2600 2285 c0 -51 3 -65 15 -65 8 0 15 9 15 20 0 12 7 20 18 20 9 0
23 -9 30 -20 7 -11 20 -20 29 -20 15 0 14 2 -1 19 -16 18 -17 22 -3 42 29 40
4 69 -60 69 l-43 0 0 -65z m85 20 c0 -14 -8 -21 -27 -23 -24 -3 -28 0 -28 23
0 23 4 26 28 23 19 -2 27 -9 27 -23z"/>
<path d="M2725 2340 c-4 -6 5 -10 19 -10 25 0 26 -3 26 -55 0 -42 3 -55 15
-55 12 0 15 13 15 55 0 48 2 55 20 55 11 0 20 5 20 10 0 6 -24 10 -54 10 -30
0 -58 -4 -61 -10z"/>
<path d="M2860 2286 c0 -53 3 -66 15 -66 13 0 15 11 13 62 -2 38 -8 63 -15 66
-10 3 -13 -14 -13 -62z"/>
<path d="M2932 2338 c-26 -26 -9 -62 32 -69 11 -2 21 -10 24 -17 3 -10 -4 -12
-32 -7 -22 5 -36 3 -36 -3 0 -22 68 -30 88 -10 23 23 14 47 -20 56 -41 10 -45
38 -5 35 18 -1 27 3 27 13 0 18 -61 19 -78 2z"/>
<path d="M3030 2340 c0 -5 9 -10 20 -10 18 0 20 -7 20 -55 0 -42 3 -55 15 -55
12 0 15 13 15 55 0 48 2 55 20 55 11 0 20 5 20 10 0 6 -25 10 -55 10 -30 0
-55 -4 -55 -10z"/>
<path d="M3172 2338 c-26 -26 -9 -62 32 -69 11 -2 21 -10 24 -18 4 -11 -3 -12
-33 -7 -28 6 -36 4 -33 -6 3 -7 20 -14 40 -16 63 -5 79 54 17 68 -35 8 -31 36
4 33 18 -1 27 2 24 10 -5 17 -59 21 -75 5z"/>
<path d="M3340 2285 c0 -50 3 -65 14 -65 10 0 16 13 18 42 l3 42 29 -42 c42
-61 56 -56 56 23 0 51 -3 65 -15 65 -11 0 -15 -11 -15 -37 l-1 -38 -32 38
c-47 54 -57 49 -57 -28z"/>
<path d="M3500 2285 l0 -65 50 0 c28 0 50 5 50 10 0 6 -16 10 -35 10 -28 0
-35 4 -35 20 0 16 7 20 30 20 17 0 30 5 30 10 0 6 -13 10 -30 10 -20 0 -30 5
-30 15 0 10 11 15 35 15 19 0 35 5 35 10 0 6 -22 10 -50 10 l-50 0 0 -65z"/>
<path d="M3615 2340 c-4 -6 5 -10 19 -10 25 0 26 -3 26 -56 0 -73 24 -70 28 4
3 44 6 52 23 52 10 0 19 5 19 10 0 6 -24 10 -54 10 -30 0 -58 -4 -61 -10z"/>
<path d="M3742 2338 c3 -7 13 -37 22 -65 21 -63 41 -68 57 -13 7 22 16 40 20
40 4 0 11 -17 16 -37 14 -58 38 -54 58 9 10 29 20 59 23 66 2 6 -2 12 -10 12
-8 0 -21 -20 -30 -47 l-15 -48 -14 48 c-15 55 -36 59 -53 10 -17 -48 -23 -49
-37 -4 -7 23 -18 41 -27 41 -8 0 -12 -6 -10 -12z"/>
<path d="M3982 2334 c-28 -19 -29 -67 -2 -94 58 -58 150 20 99 83 -24 31 -63
35 -97 11z m72 -20 c9 -8 16 -22 16 -29 0 -17 -27 -45 -44 -45 -19 0 -36 22
-36 45 0 41 36 58 64 29z"/>
<path d="M4120 2285 c0 -51 3 -65 15 -65 8 0 15 9 15 20 0 12 7 20 18 20 9 0
23 -9 30 -20 7 -11 19 -20 27 -20 14 0 14 3 1 23 -13 19 -13 25 -1 40 14 19
10 46 -9 59 -6 4 -30 8 -53 8 l-43 0 0 -65z m85 20 c0 -14 -8 -21 -27 -23 -24
-3 -28 0 -28 23 0 23 4 26 28 23 19 -2 27 -9 27 -23z"/>
<path d="M4270 2285 c0 -51 3 -65 15 -65 8 0 15 9 15 19 0 31 17 33 38 6 11
-14 27 -25 36 -25 14 0 12 7 -10 35 l-27 36 22 29 c27 38 5 41 -29 5 -13 -14
-27 -25 -30 -25 -4 0 -5 11 -2 25 3 18 0 25 -12 25 -13 0 -16 -12 -16 -65z"/>
<path d="M4460 2285 c0 -51 3 -65 15 -65 12 0 15 14 15 65 0 51 -3 65 -15 65
-12 0 -15 -14 -15 -65z"/>
<path d="M4530 2285 c0 -51 3 -65 15 -65 11 0 15 11 15 38 l1 37 30 -37 c47
-57 60 -51 58 27 -1 46 -6 65 -15 65 -8 0 -14 -16 -16 -41 l-3 -41 -30 41
c-43 59 -55 54 -55 -24z"/>
<path d="M4681 2285 c-1 -53 1 -65 14 -65 12 0 15 13 15 65 0 48 -4 65 -14 65
-9 0 -14 -18 -15 -65z"/>
<path d="M4740 2340 c0 -5 9 -10 20 -10 18 0 20 -7 20 -55 0 -42 3 -55 15 -55
12 0 15 13 15 55 0 48 2 55 20 55 11 0 20 5 20 10 0 6 -25 10 -55 10 -30 0
-55 -4 -55 -10z"/>
<path d="M4870 2285 c0 -51 3 -65 15 -65 12 0 15 14 15 65 0 51 -3 65 -15 65
-12 0 -15 -14 -15 -65z"/>
<path d="M4948 2288 c-16 -38 -22 -65 -16 -67 6 -2 15 4 20 13 5 9 22 16 38
16 16 0 33 -7 38 -16 5 -9 14 -15 20 -13 16 6 -39 129 -58 129 -11 0 -25 -22
-42 -62z m55 2 c4 -15 0 -20 -13 -20 -13 0 -17 5 -13 20 3 11 9 20 13 20 4 0
10 -9 13 -20z"/>
<path d="M5060 2340 c0 -5 9 -10 20 -10 18 0 20 -7 20 -55 0 -42 3 -55 15 -55
12 0 15 13 15 55 0 48 3 55 19 55 11 0 23 5 26 10 4 6 -17 10 -54 10 -34 0
-61 -4 -61 -10z"/>
<path d="M5190 2285 c0 -51 3 -65 15 -65 12 0 15 14 15 65 0 51 -3 65 -15 65
-12 0 -15 -14 -15 -65z"/>
<path d="M5250 2340 c0 -6 4 -18 10 -28 5 -9 16 -34 24 -54 8 -21 21 -38 29
-38 7 0 24 26 38 57 13 32 26 61 27 65 2 4 -3 8 -11 8 -9 0 -23 -19 -32 -45
-10 -24 -21 -43 -25 -40 -3 2 -12 22 -20 44 -12 36 -40 58 -40 31z"/>
<path d="M5400 2285 l0 -65 56 0 c34 0 53 4 49 10 -3 6 -22 10 -41 10 -27 0
-34 4 -34 20 0 16 7 20 35 20 19 0 35 5 35 10 0 6 -16 10 -35 10 -24 0 -35 5
-35 15 0 10 11 15 35 15 19 0 35 5 35 10 0 6 -22 10 -50 10 l-50 0 0 -65z"/>
<path d="M560 1472 c0 -881 -1 -867 58 -976 55 -101 179 -195 322 -242 52 -18
120 -19 1138 -22 740 -2 1082 1 1082 8 0 7 -341 10 -1073 10 -1168 0 -1125 -2
-1240 56 -108 55 -180 125 -230 224 l-32 65 -3 837 -2 837 97 4 98 3 -107 2
-108 2 0 -808z"/>
<path d="M6030 2270 c316 -6 384 -9 430 -24 156 -50 272 -141 332 -264 l33
-67 3 -832 2 -833 -610 0 c-400 0 -610 -3 -610 -10 0 -7 213 -10 620 -10 l620
0 0 805 c0 561 -3 820 -11 857 -36 167 -170 303 -359 364 -48 16 -101 18 -440
19 l-385 2 375 -7z"/>
<path d="M1997 1966 c-14 -152 -50 -189 -207 -211 l-85 -13 61 -1 c77 -1 154
-24 182 -53 18 -20 52 -119 52 -154 0 -7 -22 -14 -52 -16 -40 -4 -57 -11 -75
-32 l-23 -27 0 -325 0 -324 128 0 c188 0 173 -33 170 376 l-3 329 -68 3 -69 3
7 42 c20 132 73 175 220 178 l60 1 -89 14 c-146 23 -180 59 -194 209 l-8 80
-7 -79z"/>
<path d="M927 1692 c-15 -17 -17 -61 -17 -434 0 -396 1 -416 19 -432 18 -16
47 -17 338 -14 l318 3 63 29 c126 58 177 164 140 287 -14 49 -67 112 -108 129
-37 15 -38 25 -5 46 14 9 37 35 50 58 50 85 41 177 -22 247 -79 87 -136 99
-487 99 -252 0 -274 -1 -289 -18z m492 -214 c14 -9 21 -23 21 -45 0 -47 -29
-63 -117 -63 -60 0 -77 4 -93 20 -35 35 -21 83 30 104 24 9 137 -2 159 -16z
m47 -344 c29 -28 27 -67 -4 -90 -42 -32 -197 -31 -232 1 -26 23 -26 69 0 95
17 17 33 20 115 20 89 0 98 -2 121 -26z"/>
<path d="M3136 1689 c-14 -21 -16 -73 -16 -430 0 -374 1 -409 18 -429 17 -21
19 -21 337 -18 298 3 324 5 371 24 123 50 169 118 162 239 -5 103 -33 142
-147 202 -2 1 13 16 34 34 131 115 87 311 -84 376 -39 14 -94 17 -352 21
l-307 4 -16 -23z m499 -213 c31 -20 33 -58 5 -86 -17 -17 -33 -20 -99 -20 -88
0 -111 12 -111 58 0 32 8 44 35 61 27 16 138 8 170 -13z m51 -340 c20 -28 17
-70 -5 -90 -26 -23 -167 -34 -210 -16 -35 14 -56 62 -41 91 18 33 43 39 143
37 84 -3 101 -6 113 -22z"/>
<path d="M2424 1509 c-76 -24 -154 -90 -191 -163 -38 -72 -44 -207 -14 -286
28 -75 87 -140 157 -175 104 -52 272 -46 337 12 15 15 17 15 17 -1 0 -35 -30
-86 -62 -106 -46 -28 -156 -27 -238 1 -85 29 -99 25 -137 -46 -39 -73 -42
-117 -10 -138 70 -46 266 -74 395 -57 203 26 317 132 343 319 6 38 9 192 7
340 -3 244 -5 272 -21 288 -15 15 -36 18 -140 18 l-122 0 -3 -28 -3 -27 -30
21 c-71 51 -181 61 -285 28z m240 -223 c60 -25 83 -88 54 -151 -33 -73 -173
-72 -207 2 -27 60 -5 124 53 149 40 17 59 17 100 0z"/>
<path d="M4270 1520 c-31 -5 -82 -18 -114 -30 -78 -30 -86 -51 -47 -135 34
-73 59 -92 99 -76 94 37 199 35 239 -5 38 -38 30 -44 -65 -44 -240 0 -346 -67
-346 -216 0 -128 96 -215 237 -218 98 -1 141 9 182 46 l35 30 0 -31 0 -31 109
0 c60 0 117 3 126 6 38 15 45 55 45 251 0 125 -5 205 -14 238 -37 140 -146
212 -334 220 -53 2 -122 0 -152 -5z m200 -468 c0 -39 -41 -76 -84 -76 -42 0
-66 19 -66 52 0 36 27 51 93 52 56 0 57 0 57 -28z"/>
<path d="M5264 1520 c-18 -4 -53 -19 -79 -34 -26 -14 -49 -26 -51 -26 -2 0 -4
14 -4 31 l0 31 -116 -4 c-113 -3 -116 -4 -140 -31 l-24 -28 2 -326 3 -325 125
1 c172 3 164 -9 170 221 6 202 14 227 83 244 42 11 82 -10 97 -50 6 -14 10
-114 10 -222 l0 -197 126 5 c124 5 126 5 151 34 l25 29 -4 216 c-5 246 -15
292 -85 363 -61 62 -189 92 -289 68z"/>
<path d="M5940 1516 c-100 -28 -175 -91 -218 -184 -32 -70 -35 -188 -8 -270
26 -76 111 -161 191 -191 82 -31 221 -27 278 8 21 13 40 21 43 19 11 -12 -23
-83 -49 -102 -42 -31 -162 -35 -242 -7 -101 36 -111 31 -159 -74 -38 -80 -27
-101 65 -132 150 -50 333 -51 465 -2 87 33 163 112 192 202 21 64 22 85 22
380 0 255 -3 317 -14 333 -13 17 -29 19 -140 22 l-126 4 0 -37 0 -37 -34 30
c-55 48 -169 65 -266 38z m246 -241 c54 -34 55 -125 3 -169 -80 -68 -213 3
-193 103 15 75 119 111 190 66z"/>
<path d="M3371 380 c-48 -21 -64 -68 -37 -106 8 -10 38 -26 67 -34 88 -26 70
-65 -19 -41 -25 6 -46 10 -48 9 -1 -2 -5 -15 -9 -30 -6 -25 -4 -27 49 -38 88
-18 166 13 166 67 0 51 -21 67 -112 87 -17 4 -28 13 -28 23 0 13 9 15 56 10
50 -5 56 -4 64 16 4 12 4 26 0 30 -12 13 -122 18 -149 7z"/>
<path d="M3773 376 c-80 -36 -96 -142 -31 -202 110 -100 288 -1 237 133 -8 20
-26 45 -41 56 -35 26 -121 33 -165 13z m119 -63 c18 -16 24 -68 10 -89 -10
-15 -47 -34 -66 -34 -47 0 -74 84 -39 122 20 22 70 23 95 1z"/>
<path d="M4209 367 c-65 -44 -76 -141 -21 -192 51 -48 145 -55 195 -14 l22 18
-22 22 c-20 20 -22 21 -44 5 -31 -22 -61 -20 -87 4 -28 26 -29 80 -4 103 20
19 77 23 87 7 9 -15 31 -12 49 6 23 22 20 30 -18 48 -50 23 -116 21 -157 -7z"/>
<path d="M4570 265 l0 -125 40 0 40 0 0 125 0 125 -40 0 -40 0 0 -125z"/>
<path d="M4859 265 l-57 -125 39 0 c32 0 41 5 51 25 10 22 17 25 64 25 47 0
52 -2 58 -25 5 -21 12 -25 46 -25 22 0 40 3 40 8 -1 4 -25 59 -54 122 l-53
115 -39 3 -39 3 -56 -126z m121 -7 c0 -5 -11 -8 -25 -8 -29 0 -29 -1 -14 37
l11 28 13 -25 c8 -14 14 -28 15 -32z"/>
<path d="M5260 265 l0 -125 100 0 100 0 0 30 0 30 -60 0 -60 0 0 95 0 95 -40
0 -40 0 0 -125z"/>
</g>
</svg>
