<?xml version="1.0" standalone="no"?>
<!DOCTYPE svg PUBLIC "-//W3C//DTD SVG 20010904//EN"
 "http://www.w3.org/TR/2001/REC-SVG-20010904/DTD/svg10.dtd">
<svg version="1.0" xmlns="http://www.w3.org/2000/svg"
 width="500.000000pt" height="109.000000pt" viewBox="0 0 500.000000 109.000000"
 preserveAspectRatio="xMidYMid meet">

<g transform="translate(0.000000,109.000000) scale(0.100000,-0.100000)"
fill="white" stroke="none">
<path d="M2095 1071 c-22 -10 -52 -31 -67 -47 -57 -61 -58 -70 -58 -481 0
-417 1 -424 66 -485 66 -62 -26 -58 1451 -58 1282 0 1350 1 1388 19 51 23 101
79 114 128 16 56 15 744 -1 796 -17 55 -82 122 -133 136 -28 8 -437 11 -1380
11 -1283 0 -1342 -1 -1380 -19z m452 -142 c42 -16 73 -37 116 -80 31 -32 57
-63 57 -69 0 -5 -15 -10 -33 -10 -25 0 -41 9 -68 36 -40 42 -95 70 -161 79
-161 24 -315 -133 -293 -299 12 -96 79 -184 169 -221 85 -36 212 -7 283 63 24
24 40 32 68 32 33 0 35 -1 24 -21 -6 -12 -31 -41 -55 -65 -90 -87 -243 -113
-356 -62 -232 107 -267 438 -61 579 90 62 205 76 310 38z m1353 -45 l0 -55
-32 3 c-32 3 -33 4 -36 56 l-3 52 35 0 36 0 0 -56z m130 -24 l0 -80 55 0 c54
0 55 0 55 -29 0 -29 -2 -30 -52 -33 l-53 -3 -3 -135 c-4 -158 6 -203 48 -225
16 -8 36 -15 45 -15 9 0 15 -9 15 -25 0 -21 -5 -25 -30 -25 -48 0 -98 26 -120
62 -19 31 -20 50 -20 311 l0 277 30 0 30 0 0 -80z m790 -240 l0 -320 -35 0
-35 0 0 320 0 320 35 0 35 0 0 -320z m-1730 137 c52 -27 104 -91 120 -145 5
-20 10 -99 10 -174 l0 -138 -30 0 c-27 0 -30 3 -30 30 0 34 -11 38 -31 13 -43
-51 -177 -69 -254 -34 -54 24 -119 100 -135 156 -37 132 45 284 171 316 51 12
128 2 179 -24z m550 3 c44 -22 97 -80 116 -126 8 -19 14 -64 14 -101 0 -55 -6
-78 -28 -118 -71 -129 -231 -168 -349 -85 l-43 30 0 -116 0 -115 -31 3 -31 3
2 233 c0 133 5 244 11 260 25 66 103 136 171 153 46 11 124 2 168 -21z m906 2
c46 -24 95 -73 120 -122 15 -28 19 -65 22 -187 l4 -153 -36 0 c-33 0 -36 2
-36 30 l0 30 -46 -33 c-43 -30 -51 -32 -134 -32 -82 0 -91 2 -131 30 -66 47
-103 113 -107 195 -5 83 8 124 54 179 76 88 192 113 290 63z m-648 -224 l2
-238 -35 0 -35 0 0 233 c0 129 3 237 7 241 4 4 19 6 33 4 l25 -3 3 -237z"/>
<path d="M2886 696 c-58 -35 -86 -88 -86 -161 0 -70 19 -108 76 -151 32 -25
47 -29 100 -29 54 0 67 4 100 30 52 43 74 89 74 155 0 69 -39 138 -93 163 -51
25 -124 22 -171 -7z"/>
<path d="M3455 705 c-46 -25 -66 -46 -86 -90 -73 -158 83 -319 236 -245 124
60 139 232 28 317 -44 34 -132 43 -178 18z"/>
<path d="M4365 704 c-45 -23 -66 -45 -86 -89 -33 -70 -19 -149 36 -206 109
-116 289 -47 303 115 6 75 -34 148 -100 182 -36 19 -116 18 -153 -2z"/>
<path d="M1780 835 l0 -115 -40 29 c-103 75 -236 60 -320 -35 -45 -52 -60 -93
-60 -167 0 -107 45 -182 135 -223 124 -58 269 -4 326 121 16 35 19 69 19 273
l0 232 -30 0 -30 0 0 -115z m-99 -121 c63 -32 105 -115 96 -190 -9 -86 -93
-164 -175 -164 -38 0 -98 23 -125 48 -52 47 -72 147 -43 215 16 40 77 95 114
103 15 3 32 7 37 9 16 4 68 -7 96 -21z"/>
<path d="M150 784 c-45 -20 -96 -69 -123 -119 -30 -56 -30 -164 0 -221 48 -90
123 -138 218 -138 62 1 110 18 152 57 30 27 37 18 28 -38 -8 -56 -59 -118
-112 -136 -76 -25 -184 15 -218 81 -12 23 -22 30 -45 30 -28 0 -29 -1 -19 -27
48 -126 213 -182 340 -115 34 17 65 44 84 71 l30 43 0 176 c0 163 -2 180 -22
218 -25 48 -83 101 -129 120 -44 18 -140 17 -184 -2z m163 -55 c105 -54 142
-178 81 -275 -36 -58 -82 -84 -149 -84 -117 0 -206 115 -175 229 13 49 62 109
105 127 37 16 109 18 138 3z"/>
<path d="M690 789 c-14 -6 -37 -22 -52 -36 l-28 -27 0 32 c0 29 -3 32 -30 32
l-30 0 0 -240 0 -240 35 0 35 0 0 168 c1 116 5 174 14 190 15 28 64 62 89 62
13 0 17 8 17 35 0 37 -7 41 -50 24z"/>
<path d="M934 777 c-174 -84 -192 -326 -31 -434 84 -56 181 -56 267 2 l50 34
0 -35 c0 -31 2 -34 31 -34 l31 0 -4 158 c-3 169 -10 194 -67 255 -67 73 -188
96 -277 54z m202 -72 c66 -50 93 -124 73 -198 -50 -190 -298 -191 -348 -1 -33
124 66 242 193 230 31 -4 60 -15 82 -31z"/>
</g>
</svg>
