<?xml version="1.0" standalone="no"?>
<!DOCTYPE svg PUBLIC "-//W3C//DTD SVG 20010904//EN"
 "http://www.w3.org/TR/2001/REC-SVG-20010904/DTD/svg10.dtd">
<svg version="1.0" xmlns="http://www.w3.org/2000/svg"
 width="975.000000pt" height="541.000000pt" viewBox="0 0 975.000000 541.000000"
 preserveAspectRatio="xMidYMid meet">

<g transform="translate(0.000000,541.000000) scale(0.100000,-0.100000)"
fill="white" stroke="none">
<path d="M2576 3043 c-21 -81 -74 -279 -117 -440 -44 -161 -79 -295 -79 -298
0 -3 43 -5 95 -5 l94 0 12 43 c6 23 28 103 48 177 l36 135 79 3 c93 3 134 -10
143 -46 3 -13 13 -88 22 -166 l16 -141 103 -3 c83 -2 102 0 102 12 0 7 -9 79
-19 159 -20 150 -35 191 -73 203 -17 5 -10 12 43 40 72 38 127 93 161 162 18
37 23 64 23 127 0 92 -13 118 -80 157 -39 22 -49 23 -305 26 l-265 3 -39 -148z
m472 -20 c54 -40 33 -146 -39 -188 -28 -17 -56 -21 -166 -23 -107 -3 -133 -1
-133 10 0 12 45 187 55 217 4 11 30 13 131 9 105 -4 130 -8 152 -25z"/>
<path d="M1935 2890 c-66 -43 -182 -118 -258 -167 -109 -70 -139 -94 -146
-118 -6 -16 -24 -84 -41 -150 -17 -66 -34 -128 -36 -137 -5 -17 10 -18 215
-18 l220 0 15 53 c8 28 47 174 86 322 39 149 73 276 75 283 7 20 -5 14 -130
-68z"/>
<path d="M3519 2935 c-20 -7 -54 -24 -75 -38 -190 -119 -275 -444 -147 -559
78 -70 239 -61 333 19 l43 37 -7 -29 c-4 -17 -9 -38 -12 -47 -5 -16 4 -18 88
-18 l93 0 54 203 c29 111 66 249 82 307 16 58 29 111 29 118 0 9 -25 12 -89
12 l-90 0 -14 -47 -13 -48 -17 32 c-25 47 -82 73 -159 72 -35 0 -79 -6 -99
-14z m199 -159 c22 -21 26 -35 26 -78 -1 -122 -73 -236 -164 -258 -58 -14
-111 -1 -135 33 -35 49 -8 186 51 264 56 74 168 94 222 39z"/>
<path d="M4966 2930 c-135 -43 -237 -151 -282 -299 -18 -60 -18 -169 1 -213
52 -125 254 -166 424 -88 78 36 163 116 199 185 50 99 67 237 38 306 -20 47
-73 95 -125 114 -60 21 -181 19 -255 -5z m179 -150 c21 -20 25 -33 25 -81 0
-159 -113 -286 -234 -263 -52 9 -77 42 -78 101 0 106 63 226 136 259 45 21
121 12 151 -16z"/>
<path d="M5817 2926 c-27 -13 -62 -37 -78 -52 l-29 -27 10 34 c17 59 18 59
-79 59 -77 0 -90 -3 -95 -17 -12 -39 -166 -614 -166 -619 0 -2 42 -4 93 -4
l93 0 47 176 c26 97 55 192 64 211 34 72 136 117 215 96 24 -6 44 -10 46 -9 9
10 43 150 38 162 -9 23 -103 17 -159 -10z"/>
<path d="M6354 2929 c-28 -11 -68 -36 -89 -56 -35 -34 -38 -35 -31 -13 3 14 9
37 12 53 l7 27 -87 0 c-80 0 -87 -2 -96 -22 -5 -13 -34 -115 -64 -228 -30
-113 -80 -302 -111 -420 -32 -118 -60 -220 -62 -227 -4 -10 17 -13 90 -13 l95
0 31 118 c18 64 39 143 48 175 l16 58 31 -34 c41 -44 93 -61 173 -54 199 16
362 227 352 456 -5 95 -36 152 -102 182 -55 25 -146 24 -213 -2z m70 -133 c20
-8 37 -25 46 -45 29 -70 -15 -220 -81 -275 -65 -55 -163 -56 -203 -3 -44 59
-10 209 62 280 56 55 114 69 176 43z"/>
<path d="M7019 2935 c-20 -7 -54 -24 -75 -38 -190 -119 -275 -444 -147 -559
78 -71 240 -61 335 21 45 39 43 41 22 -36 -6 -23 -5 -23 87 -23 l94 0 54 203
c29 111 67 250 82 310 16 59 29 112 29 117 0 6 -38 10 -90 10 l-89 0 -12 -40
c-14 -47 -21 -49 -37 -15 -26 56 -164 83 -253 50z m191 -150 c35 -32 43 -76
25 -151 -25 -110 -76 -173 -158 -195 -51 -13 -109 1 -132 34 -37 52 -6 199 58
271 54 63 160 83 207 41z"/>
<path d="M4135 2928 c-6 -20 -35 -121 -35 -125 0 -1 71 -4 158 -5 l157 -3
-211 -183 -210 -182 -16 -65 -15 -65 280 2 280 3 12 42 c7 23 15 53 19 67 l6
26 -166 0 c-149 0 -165 2 -154 15 7 9 102 92 211 186 186 161 198 173 208 217
7 26 14 55 17 65 5 16 -12 17 -266 17 -208 0 -272 -3 -275 -12z"/>
<path d="M7580 2921 c0 -11 20 -139 45 -285 25 -147 45 -276 45 -288 0 -11
-44 -82 -97 -156 -54 -74 -102 -141 -106 -149 -6 -10 11 -13 90 -13 l98 1 305
434 c168 239 311 444 319 455 13 20 12 20 -77 20 l-91 0 -102 -142 c-169 -235
-181 -250 -185 -245 -2 2 -13 75 -24 163 -11 87 -22 174 -25 192 l-6 32 -94 0
c-87 0 -95 -2 -95 -19z"/>
</g>
</svg>
