<?xml version="1.0" standalone="no"?>
<!DOCTYPE svg PUBLIC "-//W3C//DTD SVG 20010904//EN"
 "http://www.w3.org/TR/2001/REC-SVG-20010904/DTD/svg10.dtd">
<svg version="1.0" xmlns="http://www.w3.org/2000/svg"
 width="350.000000pt" height="196.000000pt" viewBox="0 0 350.000000 196.000000"
 preserveAspectRatio="xMidYMid meet">

<g transform="translate(0.000000,196.000000) scale(0.100000,-0.100000)"
fill="white" stroke="none">
<path d="M372 1072 l3 -248 34 -52 c38 -59 125 -131 223 -186 l67 -37 53 27
c121 61 216 143 260 227 22 40 23 56 26 280 l4 237 -337 0 -336 0 3 -248z
m646 0 l-3 -239 -38 -57 c-41 -61 -126 -130 -220 -177 l-58 -30 -71 38 c-84
46 -191 140 -221 197 -21 38 -22 56 -25 274 l-3 232 321 0 321 0 -3 -238z"/>
<path d="M430 1060 c0 -233 4 -245 91 -324 54 -49 160 -116 183 -116 21 0 159
94 200 136 69 71 71 77 74 302 l3 202 -275 0 -276 0 0 -200z m478 21 l3 -115
-83 -83 -83 -83 -117 0 -118 0 0 112 0 113 88 88 87 88 110 -3 110 -3 3 -114z"/>
<path d="M583 1068 l-37 -38 97 0 97 0 0 -97 0 -97 40 39 41 40 -3 93 -3 94
-98 1 -98 2 -36 -37z"/>
<path d="M580 915 l0 -45 45 0 45 0 0 45 0 45 -45 0 -45 0 0 -45z"/>
<path d="M1283 1200 c-62 -14 -93 -62 -72 -111 11 -28 39 -42 137 -68 30 -9
42 -17 42 -31 0 -34 -93 -35 -115 -1 -3 6 -23 11 -45 11 -33 0 -37 -3 -33 -19
11 -44 50 -66 126 -69 83 -4 132 18 143 64 16 62 -21 94 -143 124 -49 12 -57
36 -16 46 17 5 37 1 56 -9 16 -10 44 -17 62 -17 31 0 34 2 26 22 -17 48 -97
75 -168 58z"/>
<path d="M1562 1180 c-128 -78 -73 -270 78 -270 57 0 88 16 117 59 31 46 29
61 -8 61 -22 0 -40 -9 -59 -30 -34 -36 -60 -38 -96 -6 -50 42 -31 125 32 140
24 6 63 -8 75 -27 9 -13 69 2 69 17 0 18 -38 56 -67 67 -41 15 -106 10 -141
-11z"/>
<path d="M1889 1173 c-6 -15 -22 -57 -36 -93 -14 -36 -33 -89 -43 -117 l-19
-53 42 0 c40 0 44 2 52 33 6 17 13 31 18 30 4 -2 29 -3 56 -3 47 0 50 -2 56
-30 6 -28 10 -30 50 -30 l44 0 -25 68 c-15 37 -39 101 -54 142 l-27 75 -52 3
c-48 3 -52 1 -62 -25z m71 -68 c5 -14 13 -37 16 -50 6 -23 3 -25 -29 -25 l-35
0 16 50 c9 28 17 50 19 50 2 0 8 -11 13 -25z"/>
<path d="M2148 1055 l-3 -145 123 0 122 0 0 30 0 30 -80 0 -80 0 0 115 0 115
-39 0 -40 0 -3 -145z"/>
<path d="M2420 1055 l0 -145 125 0 125 0 0 30 0 30 -80 0 -80 0 0 30 0 30 75
0 c73 0 75 1 75 25 0 24 -2 25 -75 25 l-75 0 0 30 0 30 80 0 80 0 0 30 0 30
-125 0 -125 0 0 -145z"/>
<path d="M2710 1055 l0 -145 40 0 40 0 0 55 c0 50 2 55 23 55 16 0 31 -14 55
-55 32 -54 34 -55 78 -55 50 0 50 -3 1 69 l-30 44 26 19 c50 36 44 114 -12
143 -21 10 -59 15 -126 15 l-95 0 0 -145z m178 56 c5 -29 -12 -41 -60 -41 -37
0 -38 1 -38 36 l0 35 48 -3 c41 -3 47 -6 50 -27z"/>
<path d="M1218 819 c-28 -16 -22 -46 12 -58 17 -5 30 -17 30 -27 0 -13 -7 -15
-37 -10 -35 6 -37 5 -19 -9 35 -27 76 -15 76 22 0 18 -8 27 -30 34 -16 6 -30
18 -30 26 0 12 7 14 30 10 17 -4 30 -2 30 3 0 6 -4 10 -9 10 -5 0 -15 2 -23 5
-7 2 -21 0 -30 -6z"/>
<path d="M1404 770 c2 -60 16 -99 16 -44 0 32 15 54 37 54 8 0 13 -13 13 -34
0 -19 5 -38 10 -41 6 -4 10 10 10 34 0 45 -23 67 -53 50 -14 -8 -17 -6 -17 16
0 14 -4 25 -9 25 -4 0 -8 -27 -7 -60z"/>
<path d="M1730 771 c0 -33 5 -63 10 -66 6 -4 10 18 10 59 0 37 -4 66 -10 66
-6 0 -10 -26 -10 -59z"/>
<path d="M1934 808 c-9 -29 -5 -90 7 -102 5 -6 9 6 9 31 0 31 4 43 18 46 16 4
16 5 0 6 -10 0 -18 5 -18 11 0 5 8 14 18 19 15 9 15 10 -5 11 -14 0 -24 -8
-29 -22z"/>
<path d="M2330 763 c0 -67 15 -79 22 -18 2 22 8 30 23 30 16 0 21 -9 26 -40
l6 -40 2 46 c1 49 -12 65 -44 53 -10 -4 -15 0 -15 15 0 12 -4 21 -10 21 -6 0
-10 -29 -10 -67z"/>
<path d="M2660 771 c0 -33 5 -63 10 -66 6 -4 10 18 10 59 0 37 -4 66 -10 66
-6 0 -10 -26 -10 -59z"/>
<path d="M2038 813 c20 -4 22 -10 22 -59 0 -34 4 -53 10 -49 6 3 10 28 10 55
0 42 3 49 23 53 12 2 -3 4 -33 4 -30 0 -45 -2 -32 -4z"/>
<path d="M1328 792 c-35 -7 -34 -76 1 -87 19 -6 51 3 51 14 0 4 -12 7 -27 6
-23 0 -28 4 -28 25 0 21 5 25 28 25 15 -1 27 2 27 6 0 9 -31 16 -52 11z"/>
<path d="M1538 793 c-36 -9 -34 -77 2 -88 50 -16 86 60 41 85 -11 5 -21 9 -23
9 -2 -1 -11 -3 -20 -6z m41 -27 c15 -18 3 -46 -20 -46 -22 0 -34 22 -25 45 7
19 30 19 45 1z"/>
<path d="M1643 789 c-17 -6 -23 -16 -23 -38 0 -54 73 -68 86 -16 10 40 -24 69
-63 54z m42 -39 c0 -18 -6 -26 -21 -28 -23 -3 -37 18 -27 44 10 25 48 13 48
-16z"/>
<path d="M1838 789 c-25 -14 -24 -65 1 -79 27 -14 37 -13 55 6 40 39 -8 101
-56 73z m47 -39 c0 -18 -6 -26 -21 -28 -26 -4 -40 24 -23 45 18 21 44 11 44
-17z"/>
<path d="M2142 784 c-12 -8 -22 -24 -22 -34 0 -24 41 -53 64 -44 25 9 19 22
-8 17 -13 -3 -27 0 -30 6 -5 7 5 11 28 11 29 0 36 4 36 20 0 10 -9 24 -19 30
-25 13 -22 13 -49 -6z m48 -14 c0 -5 -12 -10 -26 -10 -14 0 -23 4 -19 10 3 6
15 10 26 10 10 0 19 -4 19 -10z"/>
<path d="M2240 780 c-11 -11 -20 -27 -20 -35 0 -20 43 -47 64 -39 25 10 19 20
-11 19 -23 0 -28 4 -28 25 0 21 5 25 28 25 30 -1 36 9 11 19 -22 8 -22 8 -44
-14z"/>
<path d="M2468 792 c-26 -3 -28 -7 -28 -48 0 -53 18 -59 22 -6 2 29 7 37 23
37 16 0 21 -8 23 -37 4 -50 22 -49 22 2 0 44 -17 58 -62 52z"/>
<path d="M2572 789 c-30 -11 -31 -64 -2 -79 41 -22 80 13 65 59 -7 23 -33 31
-63 20z m43 -39 c0 -18 -6 -26 -21 -28 -26 -4 -40 24 -23 45 18 21 44 11 44
-17z"/>
<path d="M2722 784 c-12 -8 -22 -24 -22 -34 0 -17 34 -50 52 -50 11 0 48 38
48 50 0 12 -37 50 -48 50 -4 0 -18 -7 -30 -16z m53 -34 c0 -18 -6 -26 -23 -28
-24 -4 -38 18 -28 44 3 9 15 14 28 12 17 -2 23 -10 23 -28z"/>
<path d="M2828 789 c-38 -22 -11 -87 32 -76 13 3 20 0 20 -9 0 -9 -11 -14 -31
-14 -17 0 -28 -4 -24 -10 9 -14 48 -13 63 2 18 18 16 108 -2 108 -8 0 -20 2
-28 5 -7 2 -21 0 -30 -6z m50 -37 c4 -29 -26 -42 -44 -18 -17 24 -6 48 20 44
13 -2 22 -12 24 -26z"/>
<path d="M2972 764 l-19 -37 -11 31 c-6 18 -15 32 -21 32 -6 0 -2 -19 9 -42
20 -44 18 -58 -6 -58 -8 0 -14 -5 -14 -11 0 -6 9 -9 21 -7 15 2 28 20 46 62
27 66 24 87 -5 30z"/>
</g>
</svg>
