<?xml version="1.0" standalone="no"?>
<!DOCTYPE svg PUBLIC "-//W3C//DTD SVG 20010904//EN"
 "http://www.w3.org/TR/2001/REC-SVG-20010904/DTD/svg10.dtd">
<svg version="1.0" xmlns="http://www.w3.org/2000/svg"
 width="85.000000pt" height="44.000000pt" viewBox="0 0 85.000000 44.000000"
 preserveAspectRatio="xMidYMid meet">

<g transform="translate(0.000000,44.000000) scale(0.100000,-0.100000)"
fill="white" stroke="none">
<path d="M364 401 c-41 -19 -78 -57 -89 -92 -4 -10 -13 -19 -21 -19 -27 0 -38
-44 -20 -79 9 -17 21 -31 25 -31 5 0 12 -14 16 -31 9 -42 68 -105 111 -119 19
-6 48 -9 65 -5 41 9 97 60 120 110 11 22 29 55 40 73 18 27 20 38 11 58 -7 13
-18 24 -26 24 -7 0 -19 13 -26 29 -15 38 -46 66 -92 86 -48 19 -64 19 -114 -4z
m134 -21 c35 -22 72 -74 72 -104 0 -14 3 -16 13 -7 35 28 37 -38 3 -74 -14
-15 -28 -39 -31 -55 -4 -16 -24 -45 -46 -64 -32 -30 -47 -36 -84 -36 -37 0
-52 6 -84 36 -23 20 -43 48 -47 67 -3 18 -17 42 -30 54 -34 31 -31 100 3 72
10 -9 13 -7 13 7 0 30 37 82 72 104 42 26 104 26 146 0z"/>
<path d="M296 237 c12 -41 34 -67 57 -67 28 0 41 9 57 39 12 23 13 23 22 5 36
-67 99 -56 122 23 7 21 5 21 -129 21 -134 0 -136 0 -129 -21z m102 -14 c7 -45
-70 -55 -81 -11 -9 32 1 39 41 36 29 -2 38 -8 40 -25z m132 3 c0 -35 -25 -52
-55 -38 -24 11 -33 40 -18 55 3 4 21 7 40 7 28 0 33 -3 33 -24z"/>
<path d="M117 404 c8 -4 6 -11 -8 -25 -13 -13 -19 -31 -18 -61 2 -33 3 -36 6
-13 7 58 13 75 28 75 8 0 15 7 15 15 0 8 -8 15 -17 14 -10 0 -13 -3 -6 -5z"/>
<path d="M710 395 c0 -8 5 -15 11 -15 5 0 8 4 5 9 -4 5 0 12 6 14 8 3 6 6 -4
6 -10 1 -18 -6 -18 -14z"/>
<path d="M76 385 c-3 -9 -6 -24 -5 -33 0 -9 5 -4 10 12 9 32 6 48 -5 21z"/>
<path d="M758 388 c7 -7 13 -35 14 -62 1 -46 2 -47 5 -12 5 48 -3 86 -19 86
-9 0 -9 -3 0 -12z"/>
<path d="M740 371 c0 -6 4 -13 10 -16 6 -3 7 1 4 9 -7 18 -14 21 -14 7z"/>
<path d="M752 303 c-1 -26 4 -47 14 -57 20 -20 19 -20 21 5 1 14 -3 19 -12 15
-10 -4 -15 6 -18 37 l-4 42 -1 -42z"/>
<path d="M72 310 c0 -14 2 -19 5 -12 2 6 2 18 0 25 -3 6 -5 1 -5 -13z"/>
<path d="M82 258 c-7 -7 -17 -14 -23 -14 -5 -1 -13 -2 -19 -3 -13 -1 -13 -31
0 -31 5 0 9 5 7 12 -1 7 4 13 11 14 6 1 16 2 21 3 5 0 11 8 15 16 7 18 4 19
-12 3z"/>
<path d="M67 203 c-4 -3 -7 -11 -7 -17 0 -6 4 -4 10 4 10 16 13 11 23 -35 4
-15 5 -14 6 6 1 27 -20 54 -32 42z"/>
<path d="M775 179 c-4 -6 -5 -12 -2 -15 2 -3 7 2 10 11 7 17 1 20 -8 4z"/>
<path d="M71 154 c0 -11 3 -14 6 -6 3 7 2 16 -1 19 -3 4 -6 -2 -5 -13z"/>
<path d="M752 140 c0 -14 2 -19 5 -12 2 6 2 18 0 25 -3 6 -5 1 -5 -13z"/>
<path d="M773 105 c0 -27 2 -38 4 -22 2 15 2 37 0 50 -2 12 -4 0 -4 -28z"/>
<path d="M91 114 c0 -11 3 -14 6 -6 3 7 2 16 -1 19 -3 4 -6 -2 -5 -13z"/>
<path d="M751 94 c0 -11 3 -14 6 -6 3 7 2 16 -1 19 -3 4 -6 -2 -5 -13z"/>
<path d="M71 83 c0 -12 6 -29 15 -37 17 -17 54 -22 54 -7 0 5 -8 7 -18 4 -20
-5 -37 11 -45 42 -4 19 -5 18 -6 -2z"/>
<path d="M710 38 c0 -11 32 -10 48 1 9 5 3 8 -17 7 -17 -1 -31 -4 -31 -8z"/>
</g>
</svg>
